<?xml version="1.0" encoding="UTF-8" standalone="no"?>
<!-- Svg Vector Icons : http://www.onlinewebfonts.com/icon -->

<svg
   xmlns:dc="http://purl.org/dc/elements/1.1/"
   xmlns:cc="http://creativecommons.org/ns#"
   xmlns:rdf="http://www.w3.org/1999/02/22-rdf-syntax-ns#"
   xmlns:svg="http://www.w3.org/2000/svg"
   xmlns="http://www.w3.org/2000/svg"
   xmlns:sodipodi="http://sodipodi.sourceforge.net/DTD/sodipodi-0.dtd"
   xmlns:inkscape="http://www.inkscape.org/namespaces/inkscape"
   version="1.1"
   x="0px"
   y="0px"
   viewBox="0 0 1000 1000"
   enable-background="new 0 0 1000 1000"
   xml:space="preserve"
   id="svg10"
   sodipodi:docname="forbidden.svg"
   inkscape:version="0.92.4 (5da689c313, 2019-01-14)"><defs
   id="defs14" /><sodipodi:namedview
   pagecolor="#ffffff"
   bordercolor="#666666"
   borderopacity="1"
   objecttolerance="10"
   gridtolerance="10"
   guidetolerance="10"
   inkscape:pageopacity="0"
   inkscape:pageshadow="2"
   inkscape:window-width="1920"
   inkscape:window-height="1051"
   id="namedview12"
   showgrid="false"
   inkscape:zoom="0.3337544"
   inkscape:cx="-191.77471"
   inkscape:cy="168.30353"
   inkscape:window-x="0"
   inkscape:window-y="-37"
   inkscape:window-maximized="1"
   inkscape:current-layer="g6" />
<metadata
   id="metadata2"> Svg Vector Icons : http://www.onlinewebfonts.com/icon <rdf:RDF><cc:Work
     rdf:about=""><dc:format>image/svg+xml</dc:format><dc:type
       rdf:resource="http://purl.org/dc/dcmitype/StillImage" /></cc:Work></rdf:RDF></metadata>
<g
   id="g8"><g
     transform="translate(0.000000,512.000000) scale(0.100000,-0.100000)"
     id="g6"><path
       d="M 4550.6,5001.2 C 3398.1,4894 2339.4,4390.5 1521.9,3565.4 1125.6,3165.3 867.2,2803.4 618.3,2301.9 17.1,1097.6 -63.3,-259.7 388.6,-1534.8 492,-1823.9 727.4,-2300.6 897.8,-2559 c 476.7,-725.6 1144.8,-1317.1 1922.1,-1702 1391.8,-693 2969.3,-693 4361.1,0 1529.6,758.1 2544.3,2247.6 2699.4,3961 114.9,1246.3 -281.4,2532.8 -1079.8,3513 -178,218.3 -524.6,560.9 -746.6,740.9 -518.8,415.4 -1200.4,752.4 -1847.5,915.1 -541.7,136 -1117.9,182 -1655.9,132.2 z m 907.6288,-878.2576 c 455.6,-47.9 949.6424,-187.7864 1372.7424,-398.3864 155.1,-76.6 775.48,-572.4783 785.08,-585.8783 17.2,-19.1 -2016.3064,-2010.5386 -2844.6486,-2846.51406 C 3943.0604,-543.81182 1983.1023,-2471.7475 1983.1023,-2471.7475 l -433.6896,572.7923 c -95.7,153.2 -269.0357,631.604 -336.0357,836.404 -166.5,511.19993 -187.6231,1227.23467 -126.3231,1753.63467 195.3,1665.60003 1715.0139,3229.95213 3372.9139,3430.95213 268,32.6 743.661,25.8068 998.261,0.9068 z M 8628.5861,1957.0221 c 524.6,-1047.19997 536.4784,-2570.66251 11.8784,-3608.3625 -352.3,-702.6 -1093.3198,-1468.3633 -1795.9198,-1820.6633 -1012.8,-511.2 -2562.9682,-514.2653 -3577.6682,-26.1653 -126.3,59.3 -416.4286,261.0596 -462.4286,289.7596 l -336.6198,294.5957 2940.905,2862.076412 C 7323.1331,1862.7627 8087.709,2660.9423 8106.809,2643.6423 c 13.4,-9.5 445.2771,-531.6202 521.7771,-686.6202 z"
       id="path4"
       inkscape:connector-curvature="0"
       sodipodi:nodetypes="ccccccccccccccccccccccccccccccc" /></g></g>
</svg>