<?xml version="1.0" encoding="utf-8"?>
<!-- Svg Vector Icons : http://www.onlinewebfonts.com/icon -->
<!DOCTYPE svg PUBLIC "-//W3C//DTD SVG 1.1//EN" "http://www.w3.org/Graphics/SVG/1.1/DTD/svg11.dtd">
<svg version="1.1" xmlns="http://www.w3.org/2000/svg" xmlns:xlink="http://www.w3.org/1999/xlink" x="0px" y="0px" viewBox="0 0 1000 1000" enable-background="new 0 0 1000 1000" xml:space="preserve">
<metadata> Svg Vector Icons : http://www.onlinewebfonts.com/icon </metadata>
<g><g transform="translate(0.000000,512.000000) scale(0.100000,-0.100000)"><path d="M4550.6,5001.2C3398.1,4894,2339.4,4390.5,1521.9,3565.4c-396.3-400.1-654.7-762-903.6-1263.5C17.1,1097.6-63.3-259.7,388.6-1534.8c103.4-289.1,338.8-765.8,509.2-1024.2c476.7-725.6,1144.8-1317.1,1922.1-1702c1391.8-693,2969.3-693,4361.1,0c1529.6,758.1,2544.3,2247.6,2699.4,3961c114.9,1246.3-281.4,2532.8-1079.8,3513c-178,218.3-524.6,560.9-746.6,740.9c-518.8,415.4-1200.4,752.4-1847.5,915.1C5664.8,5005,5088.6,5051,4550.6,5001.2z M5347,3720.4c455.6-47.9,859.6-166.6,1282.7-377.2c155.1-76.6,291-151.2,300.6-164.6c17.2-19.1-559-605-2473.5-2519.4L1960.3-1837.2l-53.6,84.2c-95.7,153.2-273.8,539.9-340.8,744.7C1399.4-497.1,1349.6,4.5,1410.9,530.9c195.3,1665.6,1497.1,2977,3155,3178C4833.9,3741.5,5092.4,3745.3,5347,3720.4z M8222.5,1750.5c524.6-1047.2,524.6-2216.9,0-3254.6c-352.3-702.6-894.1-1244.4-1596.7-1596.7c-1012.8-511.2-2171-522.6-3185.7-34.5c-126.3,59.3-268,134-314,162.7l-84.2,53.6L5538.5-422.5C7452.9,1492,8038.8,2068.3,8057.9,2051C8071.3,2041.5,8146,1905.5,8222.5,1750.5z"/></g></g>
</svg>