<svg xmlns="http://www.w3.org/2000/svg" xml:space="preserve" id="Capa_1" width="947.383" height="947.383" x="0" y="0" viewBox="0 0 947.383 947.383">
   <g id="g10" style="fill:#fff;fill-opacity:1;stroke:#000;stroke-opacity:1">
      <g id="g8" style="fill:#fff;fill-opacity:1;stroke:#000;stroke-opacity:1">
         <g id="g6" style="fill:#fff;fill-opacity:1;stroke:#000;stroke-opacity:1">
            <path id="path2" d="m566.828 2.896-93.137 49.266-93.454-49.434c-17.958-9.499-38.475 7.352-32.646 26.814l50.675 169.197c24.891-7.776 50.084-11.69 75.425-11.69 24.992 0 49.839 3.814 74.396 11.378l51.356-168.616c5.936-19.482-14.611-36.438-32.615-26.915z" style="fill:#fff;fill-opacity:1;stroke:#000;stroke-opacity:1" />
            <path id="path4" d="M782.74 722.655c0-230.945-79.884-515.212-310.83-515.212S157.62 499.79 157.62 730.733s85.655 208.107 316.6 208.107c230.945.003 308.521 14.761 308.521-216.185zm-275.103 50.106v41.03c0 13.26-10.752 24.011-24.012 24.011h-20.7c-13.26 0-24.011-10.75-24.011-24.01V776.44c-28.598-3.513-62.94-13.997-91.284-32.799-10.34-6.86-13.319-21.063-6.645-31.526l21.364-33.491c6.745-10.57 20.757-13.857 31.409-7.24 24.56 15.26 45.29 21.612 66.018 21.612 30.68 0 42.953-10.432 42.953-34.36 0-49.092-158.306-55.839-158.306-163.215 0-61.974 34.974-104.925 94.492-117.81v-40.813c0-12.702 10.297-23 23-23h22.722c12.703 0 23 10.297 23 23v39.586c30.098 4.777 54.617 17.739 75.582 35.409 9.852 8.303 11.098 23.018 2.658 32.75l-23.163 26.702c-7.739 8.924-21.012 10.711-30.678 3.926-15.733-11.044-30.69-16.567-47.715-16.567-26.384 0-39.27 7.363-39.27 31.906 0 46.634 158.306 49.089 158.306 160.76-.001 59.52-31.295 106.153-95.72 121.491z" style="fill:#fff;fill-opacity:1;stroke:#000;stroke-width:1.14999998;stroke-opacity:1" />
         </g>
      </g>
   </g>
</svg>