<?xml version="1.0" encoding="UTF-8" standalone="no"?>
<!-- Generator: Adobe Illustrator 16.0.0, SVG Export Plug-In . SVG Version: 6.00 Build 0)  -->

<svg
   xmlns:dc="http://purl.org/dc/elements/1.1/"
   xmlns:cc="http://creativecommons.org/ns#"
   xmlns:rdf="http://www.w3.org/1999/02/22-rdf-syntax-ns#"
   xmlns:svg="http://www.w3.org/2000/svg"
   xmlns="http://www.w3.org/2000/svg"
   xmlns:sodipodi="http://sodipodi.sourceforge.net/DTD/sodipodi-0.dtd"
   xmlns:inkscape="http://www.inkscape.org/namespaces/inkscape"
   version="1.1"
   id="Capa_1"
   x="0px"
   y="0px"
   width="947.383px"
   height="947.383px"
   viewBox="0 0 947.383 947.383"
   xml:space="preserve"
   sodipodi:docname="cospend.svg"
   style="enable-background:new 0 0 947.383 947.383;"
   inkscape:version="0.92.3 (2405546, 2018-03-11)"><metadata
   id="metadata47"><rdf:RDF><cc:Work
       rdf:about=""><dc:format>image/svg+xml</dc:format><dc:type
         rdf:resource="http://purl.org/dc/dcmitype/StillImage" /><dc:title></dc:title></cc:Work></rdf:RDF></metadata><defs
   id="defs45" /><sodipodi:namedview
   pagecolor="#ffffff"
   bordercolor="#666666"
   borderopacity="1"
   objecttolerance="10"
   gridtolerance="10"
   guidetolerance="10"
   inkscape:pageopacity="0"
   inkscape:pageshadow="2"
   inkscape:window-width="1920"
   inkscape:window-height="1051"
   id="namedview43"
   showgrid="false"
   inkscape:zoom="0.99642911"
   inkscape:cx="335.62996"
   inkscape:cy="360.28614"
   inkscape:window-x="0"
   inkscape:window-y="0"
   inkscape:window-maximized="1"
   inkscape:current-layer="g6" />
<g
   id="g10"
   style="fill:#ffffff;fill-opacity:1;stroke:#000000;stroke-opacity:1">
	<g
   id="g8"
   style="fill:#ffffff;fill-opacity:1;stroke:#000000;stroke-opacity:1">
		<g
   id="g6"
   style="fill:#ffffff;fill-opacity:1;stroke:#000000;stroke-opacity:1">
			<path
   d="M566.828,2.896l-93.137,49.266L380.237,2.728c-17.958-9.499-38.475,7.352-32.646,26.814l50.675,169.197     c24.891-7.776,50.084-11.69,75.425-11.69c24.992,0,49.839,3.814,74.396,11.378l51.356-168.616     C605.379,10.329,584.832-6.627,566.828,2.896z"
   id="path2"
   style="fill:#ffffff;fill-opacity:1;stroke:#000000;stroke-opacity:1" />
			<path
   d="m 782.74036,722.65505 c 0,-230.9453 -79.88442,-515.21197 -310.82972,-515.21197 -230.9453,0 -314.29209,292.34551 -314.29209,523.29081 0,230.943 85.65503,208.1059 316.60033,208.1059 230.9453,0.003 308.52148,14.76171 308.52148,-216.18474 z m -275.1036,50.10644 v 41.0297 c 0,13.26065 -10.75135,24.01085 -24.012,24.01085 h -20.69885 c -13.2618,0 -24.012,-10.7502 -24.012,-24.01085 v -37.35085 c -28.5982,-3.51325 -62.9395,-13.9978 -91.28355,-32.79915 -10.3408,-6.85975 -13.3193,-21.0634 -6.64585,-31.5261 l 21.3647,-33.49145 c 6.74475,-10.56965 20.75635,-13.85635 31.4088,-7.23925 24.56055,15.2605 45.2893,21.61195 66.01805,21.61195 30.6797,0 42.9525,-10.4328 42.9525,-34.36085 0,-49.0912 -158.30555,-55.83825 -158.30555,-163.2149 0,-61.9735 34.9738,-104.92485 94.49205,-117.80945 v -40.8135 c 0,-12.70175 10.2971,-23 23,-23 h 22.7217 c 12.7029,0 23,10.2971 23,23 v 39.58645 c 30.0978,4.7771 54.61695,17.73875 75.5826,35.4085 9.85205,8.303 11.0975,23.0184 2.65765,32.75085 l -23.1633,26.70185 c -7.73835,8.924 -21.01165,10.7111 -30.6774,3.9261 -15.73315,-11.0446 -30.6912,-16.5669 -47.7158,-16.5669 -26.3833,0 -39.26905,7.3623 -39.26905,31.9056 0,46.63365 158.30555,49.0889 158.30555,160.75965 -10e-4,59.52055 -31.29495,106.15305 -95.72025,121.49175 z"
   id="path4"
   style="fill:#ffffff;fill-opacity:1;stroke:#000000;stroke-width:1.14999998;stroke-opacity:1"
   inkscape:connector-curvature="0"
   sodipodi:nodetypes="ssscscsssscccccssscsssscccccsscc" />
		</g>
	</g>
</g>
<g
   id="g12">
</g>
<g
   id="g14">
</g>
<g
   id="g16">
</g>
<g
   id="g18">
</g>
<g
   id="g20">
</g>
<g
   id="g22">
</g>
<g
   id="g24">
</g>
<g
   id="g26">
</g>
<g
   id="g28">
</g>
<g
   id="g30">
</g>
<g
   id="g32">
</g>
<g
   id="g34">
</g>
<g
   id="g36">
</g>
<g
   id="g38">
</g>
<g
   id="g40">
</g>
</svg>
