<svg xmlns="http://www.w3.org/2000/svg" xml:space="preserve" id="Capa_1" x="0" y="0" viewBox="0 0 611.994 611.994">
	<path d="m452.845 204.079 51.866 51.879c31.067 31.067 31.067 76.989 31.067 76.989l8.253-13.832c13.589-22.782 23.998-50.126 22.264-72.613-2.834-36.806-26.045-65.167-39.921-79.037l-18.464-18.457 36.71-36.716-132.892-4.747 4.753 132.886zM159.154 409.885l-51.872-51.859c-31.067-31.08-31.067-76.996-31.067-76.996l-8.253 13.825c-13.582 22.776-23.998 50.126-22.264 72.607 2.834 36.819 26.038 65.179 39.928 79.043l18.457 18.464-36.716 36.71 132.899 4.747-4.753-132.879zm21.401-294.663q-.002 6.946 5.304 10.582c3.525 2.425 8.88 4.306 16.039 5.624V99.676c-8.042.889-13.621 2.681-16.704 5.38-3.091 2.7-4.639 6.084-4.639 10.166m63.1 58.123c-3.372-2.367-8.522-4.158-15.463-5.368v31.08c13.665-1.759 20.498-6.833 20.498-15.214 0-4.619-1.676-8.125-5.035-10.498" />
	<path d="M364.167 149.449C364.167 66.913 297.254 0 214.718 0 132.176 0 65.269 66.913 65.269 149.449c0 82.543 66.907 149.449 149.449 149.449 82.536.007 149.449-66.9 149.449-149.449m-93.898 66.971c-9.865 8.048-23.882 13.064-42.077 15.041v17.043h-26.294v-16.205c-10.812-.333-20.978-1.292-30.517-2.885q-14.299-2.407-23.723-6.705v-32.411a189 189 0 0 0 12.571 4.056 150 150 0 0 0 12.559 2.981c4.299.825 8.829 1.484 13.557 1.983 4.741.493 9.929.8 15.553.908V164.01a203 203 0 0 1-20.677-4.056c-6.833-1.702-12.968-4.261-18.432-7.69-5.457-3.41-9.904-7.933-13.32-13.563-3.404-5.617-5.125-12.891-5.125-21.81 0-7.287 1.324-13.755 3.967-19.436s6.449-10.582 11.413-14.721 10.998-7.466 18.112-10.006c7.108-2.527 15.124-4.293 24.055-5.284v-17.05h26.294v16.532c8.042.448 16.237 1.363 24.554 2.738s15.949 3.288 22.897 5.713v32.737c-16.96-5.508-32.801-8.605-47.451-9.264v36.716a200 200 0 0 1 20.588 4.376c6.782 1.823 12.84 4.472 18.195 7.946 5.336 3.468 9.699 8.016 13.058 13.64 3.365 5.617 5.048 12.846 5.048 21.669.006 14.1-4.94 25.168-14.805 33.223m129.898 96.675c-82.543 0-149.449 66.907-149.449 149.449 0 82.536 66.907 149.449 149.449 149.449 82.536 0 149.449-66.913 149.449-149.449 0-82.542-66.913-149.449-149.449-149.449m60.234 234.282q-3.639 1.488-8.515 2.725c-3.263.832-6.647 1.51-10.172 2.066-3.532.55-7.146.966-10.831 1.241-3.691.269-7.249.409-10.671.409q-68.288 0-83.336-54.239h-21.33V472.96h17.197a128 128 0 0 1-.25-4.555 132 132 0 0 1-.083-4.549c0-3.525.166-6.948.499-10.249h-17.363V426.98h21.829c5.502-18.521 15.265-32.769 29.269-42.749 13.985-9.98 31.969-14.971 53.907-14.971 3.314 0 6.801.173 10.505.499q5.529.5 10.665 1.324c3.41.557 6.615 1.235 9.59 2.066 2.975.832 5.464 1.689 7.44 2.565v33.069c-5.073-1.759-10.754-3.25-17.031-4.466q-9.426-1.815-18.688-1.817c-21.829 0-36.543 8.157-44.157 24.471h55.896V453.6h-62.006c-.339 2.968-.499 6.116-.499 9.43 0 1.753.058 3.583.16 5.457.115 1.875.224 3.359.339 4.466h49.614v26.621h-43.83c3.634 7.498 9.104 12.866 16.378 16.128 7.274 3.244 16.864 4.875 28.77 4.875 2.757 0 5.751-.16 9.008-.493a149 149 0 0 0 9.84-1.331 116 116 0 0 0 9.596-1.983c3.071-.768 5.841-1.593 8.266-2.482v33.089z" />
</svg>