<svg xmlns="http://www.w3.org/2000/svg" xml:space="preserve" id="Capa_1" width="947.383" height="947.383" x="0" y="0" viewBox="0 0 947.383 947.383">
   <g id="g10" style="fill:#fff;fill-opacity:1;stroke:#000;stroke-opacity:1">
      <g id="g8" style="fill:#fff;fill-opacity:1;stroke:#000;stroke-opacity:1">
         <g id="g6" style="fill:#fff;fill-opacity:1;stroke:#000;stroke-opacity:1">
            <path id="path834" d="M468.384 26.926c-113.104 0-193.894 92.422-193.894 180.967 0 90.483 6.463 155.114 51.705 226.209 12.926 18.484 32.316 22.621 45.242 38.779 8.725 32.315 15.511 63.339 6.463 96.947-82.405 29.084-160.931 64.63-232.672 103.408-54.936 38.779-50.735 20.037-64.63 148.653-10.342 102.763 226.209 109.873 387.786 109.873 161.578 0 398.32-6.464 387.786-109.873-13.896-129.263-14.865-110.52-64.631-148.653-71.094-42.269-158.346-75.423-232.672-103.408-9.695-36.193-2.586-62.886 6.463-96.947 15.188-16.158 32.316-23.462 45.242-38.78 44.595-57.198 51.705-156.73 51.705-226.208 0-102.764-92.422-180.967-193.893-180.967m-4.255 51.4h17.642c9.863 0 17.858 7.996 17.858 17.86v30.736c23.37 3.71 42.408 13.774 58.687 27.494 7.65 6.447 8.616 17.873 2.063 25.43l-17.985 20.732c-6.008 6.93-16.315 8.317-23.82 3.049-12.216-8.576-23.83-12.863-37.049-12.863-20.485 0-30.49 5.716-30.49 24.773 0 36.21 122.918 38.115 122.918 124.822-.001 46.215-24.301 82.423-74.324 94.332v31.86c0 10.296-8.349 18.642-18.645 18.642h-16.07c-10.297 0-18.645-8.346-18.645-18.642v-29.002c-22.205-2.728-48.87-10.869-70.879-25.467-8.029-5.326-10.342-16.355-5.16-24.479l16.59-26.005c5.237-8.207 16.116-10.76 24.387-5.621 19.07 11.849 35.164 16.78 51.26 16.78 23.82 0 33.351-8.1 33.351-26.679 0-38.117-122.918-43.355-122.918-126.728 0-48.12 27.156-81.47 73.37-91.475v-31.69c0-9.862 7.995-17.859 17.859-17.859" style="fill:#000;fill-opacity:1;stroke:none;stroke-width:64.63111877" />
         </g>
      </g>
   </g>
</svg>