<svg width="936.09px" height="936.09px" enable-background="new 0 0 936.092 936.092" version="1.1" viewBox="0 0 936.09 936.09" xml:space="preserve" xmlns="http://www.w3.org/2000/svg">

	<path d="m789.01 299.11c-20.625-20.38-53.866-20.181-74.245 0.445-20.379 20.625-20.18 53.865 0.445 74.244l42.25 41.747h-236.92v-236.92l41.747 42.25c20.38 20.626 53.62 20.826 74.245 0.445 20.625-20.379 20.825-53.619 0.445-74.244l-129.91-131.48c-9.787-9.905-23.107-15.516-37.03-15.6-0.106-1e-3 -0.21-1e-3 -0.316-1e-3 -13.81 0-27.069 5.442-36.898 15.155l-133.27 131.68c-20.625 20.379-20.824 53.619-0.445 74.244 10.271 10.395 23.806 15.601 37.348 15.601 13.33 0 26.667-5.046 36.897-15.155l42.192-41.689v235.71h-236.92l42.25-41.746c20.625-20.379 20.824-53.62 0.445-74.245s-53.62-20.825-74.245-0.445l-131.48 129.91c-9.904 9.786-15.516 23.105-15.599 37.03-0.083 13.922 5.368 27.309 15.154 37.213l131.68 133.27c10.271 10.395 23.805 15.602 37.347 15.602 13.33 0 26.667-5.047 36.898-15.156 20.625-20.379 20.824-53.619 0.445-74.244l-41.689-42.191h235.71v235.71l-42.192-41.688c-20.625-20.381-53.864-20.182-74.245 0.445-20.379 20.625-20.18 53.863 0.445 74.242l133.27 131.68c9.83 9.713 23.089 15.154 36.898 15.154h0.315c13.923-0.084 27.244-5.695 37.03-15.602l129.91-131.48c20.38-20.625 20.181-53.865-0.444-74.244-20.626-20.381-53.866-20.182-74.245 0.445l-41.747 42.25v-236.91h235.71l-41.689 42.191c-20.379 20.625-20.18 53.865 0.445 74.244 10.232 10.111 23.567 15.156 36.898 15.156 13.541 0 27.077-5.207 37.347-15.602l131.68-133.27c9.786-9.904 15.237-23.291 15.154-37.213-0.083-13.925-5.695-27.244-15.599-37.03l-131.48-129.91z"/>
















</svg>
